<svg id="8c306649-efdf-4a68-8bf1-1b02634bbe60" data-name="Layer 1" xmlns="http://www.w3.org/2000/svg" viewBox="0 0 500 1500"><defs><style>.ee0e713a-0841-42cd-af51-58035bf90620{fill:#b5d0d0;}.\31 14142d4-5cdd-400e-9a68-4f16bdce9b76,.\31 1b75d8a-3dd7-44dd-83cb-e6ac296ca134,.\31 640a1e3-58bd-43f1-a3e6-fd90499f4024,.\32 2edb9c8-831d-4e62-80f9-d8638466a2b9,.\34 f006d58-b1d1-4bff-9883-e890114030a3,.\35 2eaae90-fa8f-4d77-b8e6-61b260dbcf1d,.\36 bbd46a8-4eb5-4e49-a854-64318d595125,.\39 7c16631-08c1-4db0-8db6-d5683f3cebf6,.ceacbc1e-dbf7-4568-aff4-546504e73f74,.d68fabba-c735-4fa7-9d9b-734b988edfa1,.e927fe2c-3d42-4415-a298-5b2efee2c92f,.ee0e713a-0841-42cd-af51-58035bf90620,.fc3bf5c7-9de7-4b2d-8f12-dcb04ccc2a6c{stroke:#aeaeae;}.e9dccca2-40c5-42ef-ad43-095074879992,.ee0e713a-0841-42cd-af51-58035bf90620{stroke-miterlimit:10;}.e9dccca2-40c5-42ef-ad43-095074879992{fill:#fff;stroke:#fff;}.\31 14142d4-5cdd-400e-9a68-4f16bdce9b76,.\31 1b75d8a-3dd7-44dd-83cb-e6ac296ca134,.\31 640a1e3-58bd-43f1-a3e6-fd90499f4024,.\32 2edb9c8-831d-4e62-80f9-d8638466a2b9,.\33 98f217e-f959-4328-85fc-274c58c90f5d,.\34 f006d58-b1d1-4bff-9883-e890114030a3,.\35 2eaae90-fa8f-4d77-b8e6-61b260dbcf1d,.\36 bbd46a8-4eb5-4e49-a854-64318d595125,.\39 7c16631-08c1-4db0-8db6-d5683f3cebf6,.ceacbc1e-dbf7-4568-aff4-546504e73f74,.d68fabba-c735-4fa7-9d9b-734b988edfa1,.e927fe2c-3d42-4415-a298-5b2efee2c92f,.fc3bf5c7-9de7-4b2d-8f12-dcb04ccc2a6c{fill:none;stroke-linejoin:round;}.\31 1b75d8a-3dd7-44dd-83cb-e6ac296ca134,.\31 640a1e3-58bd-43f1-a3e6-fd90499f4024,.\35 2eaae90-fa8f-4d77-b8e6-61b260dbcf1d,.\39 7c16631-08c1-4db0-8db6-d5683f3cebf6,.e927fe2c-3d42-4415-a298-5b2efee2c92f,.fc3bf5c7-9de7-4b2d-8f12-dcb04ccc2a6c{stroke-linecap:round;}.\39 7c16631-08c1-4db0-8db6-d5683f3cebf6{stroke-width:2.74px;}.\31 14142d4-5cdd-400e-9a68-4f16bdce9b76,.ceacbc1e-dbf7-4568-aff4-546504e73f74{stroke-width:2.6px;}.ceacbc1e-dbf7-4568-aff4-546504e73f74{stroke-dasharray:2.6 2.6;}.\31 640a1e3-58bd-43f1-a3e6-fd90499f4024{stroke-width:1.41px;}.\33 98f217e-f959-4328-85fc-274c58c90f5d,.e927fe2c-3d42-4415-a298-5b2efee2c92f{stroke-width:2px;}.\35 2eaae90-fa8f-4d77-b8e6-61b260dbcf1d{stroke-width:2.69px;}.\32 2edb9c8-831d-4e62-80f9-d8638466a2b9{stroke-width:1.84px;}.\31 1b75d8a-3dd7-44dd-83cb-e6ac296ca134{stroke-width:1.11px;}.\34 f006d58-b1d1-4bff-9883-e890114030a3{stroke-width:1.28px;}.d68fabba-c735-4fa7-9d9b-734b988edfa1{stroke-width:3.01px;}.\33 98f217e-f959-4328-85fc-274c58c90f5d{stroke:#0b0b0b;}.be0e2ad3-b0e9-48ab-8f6d-cb6354bac081{fill:#0b0b0b;}</style></defs>
<path class="22edb9c8-831d-4e62-80f9-d8638466a2b9" d="M143.21,333.56l1.33.67,2,.91,1.66,1,1.4.91,1.46,1.09,2,1.88,1.46,2.32,1.09,2.7.67,2.73.47,1.41.3,1.94.17,2,.12,2,.12,1.79.2,1.84.86,2.35,1.28,2.14,1.59,1.43,1.25,1.1,2.19,1.84,1.84,1.67,1.84,1.31,2.94,1.72,2.1.65,1.8-.14,2-.47,1.4-.44,1.65-.57,2.53-1.53,1.41-1,1.3-1,2.81-2.1,2.37-1.89,1.17-1.36,1.28-1.36,1.35-1.53,1.43-1.66,1.12-1.31,1.3-1.78,1.67-2.85,1-1.36,1.83-2.49,2-1.76,2.07-.41,1.54.75,1.61,2.2.3,2.06-.23,2-.66,1.7-.31,2,.8,1.28,2.15.86,2.55.61,2.06,2.89.93,1.33.38,2.59.75,2.1,1.39,1,2.15,1,1.41.66,1.46.79,1.65.14,2,0,1.79.49,2,.61,1.7-.26,1.43-1.41.86-2.2.71-1.88,1.48-1.78,1.72-2.12,1.76-2,1.15-1.43,1.58-2.4,2.33-3,.92-1.35,1.61-1.8,1.65-1.39,1.22-1.22,1.65-1,2.73-1.52,1.28-.73,2.2-1.48.79-2.07.43-2.67,1.45-2.27,2.27-1.41,3-.17,2.73,1.12,2.27,1.65,3,1.31,1.8,1.15,2.63,1.39,1.52.19,2.18-.6,1.65-2.07.6-2,.39-2.8.36-1.72.26-2.21.2-2.32.3-2.1.1-1.58,0-1.49-.14-2.46-.1-2.08.13-2,.41-1.45.8-1.29L291,313.2l1.2-1,2-1.34,1.73-1.37,1.55-1.51.56-1.4.22-1.67.14-2,.42-2.19.6-2.21L300,297l1.22-1.57,1.63-1.14,1.53-.27,2.67-.07h2.46l1.84-.42,1.94-.61,1.47-.16,1.54.18,1.54.69,1.71.54,1.48,0,1.67-.2,1-1.3.66-1.63.59-1.46.54-1.92.74-1.53.42-1.48,0-1.59,1.48.14,1.26.78.73-1.46.6-1.75.82-1.76.94-1.26,1.6-1.16,1.33-1,1.41-1.18,1.6-1.15,1.18-1.47,1.2-1.81,1.36-1.57,1.49-.91,1.58-.77,1.78-.63,1.78-.81,1.58-1.23,1.31-1.31,1.73-2.13,1.42-1.17,2.08-1.7,1.59-1.78,1.47-2.1.69-1.83.26-2-.08-2.14-.6-1.4-.79-1.86-.92-1.24-1.41-1.35-.91-1.41-.5-2,.26-1.67.79-1.73,1.41-1.85,1.15-1.14,1.05-1,1.77-1.51,1.23-1.12,1.85-1.35,1.83-.68,3-.34,2.33-.11,2.35,0,2.65,0,3.11-.73,2.77-1.42,2.41-1.82,1.78-1.85,1.15-1,1-1.09,2.06-1.68,2-1.45,2-.69,2.55,0,1.58.31,1.69.55,1.45.72,1.1,1.31,1.58,2.68.79,1.92,1,2.15,1.63,2.21,1.08,1.89,1.3,2.62.92,2.43.36,2-.13,2.29-.47,1.61-1.18,2.1-1.57,2-1.31,1.34-.87,1.82-.42,1.79.1,1.78.32,2.28.54,2.41.86,2.22.72,1.43.76,1.29.79,1.37.85,1.25,1.78,1.47,1.54.81,2.25.33,2.46-.11,2.51,0,2.45.42,2,.72,2.53,1.31,1.3.93,1.25,1,1.35,2.62-.2,2.43-.45,1.41-.62,1.4-.75,1.71-.51,1.67-.53,1.36-.85,1.41L428.1,285l-1.25,2-1,2.18-.44,2.31-.14,1.57.31,2.62.59,2.15L427,300l.77,2.34.32,2.33.48,3.07.26,2.83-.27,2.43-.62,1.42-1,2.09-1.33,2.43-.6,2.77-.11,2.52-.12,1.48-.11,2.68.2,2.73.92,2.1,1.21,1.72,1.24,1.94,1.85,1.27,1.46,1.14,1.45,1.83,1.14,1.34.11,1.54-.14,1.48-.14,2.59-.13,1.58-.3,2.15v2.56l-.44,2.71-.45,1.49-.71,2.18-.35,1.43.11,2.37.93,2.06,1.54,1.77,2.62,1.55,1.48.8,2,1.08,1.94.79,1.61,1,1.66,1.33,1.72,1.28,1.84.93,1.88,1.2,1.4,1.3.35,1.59.39,1.95.53,2.1,1.22,1.48,1.53,1.72,1.33,1.46,1.6,2.08,1.67,1.43,1.17,1.37.42,2.27.36,2,.69,1.85.53,2.44.51,2.12.8,2.09,1.4,1.31,1.22,1.71.62,1.41.61,2.4.67,2.62.68,2.24,1.67,1.78,1.55.69,1.58.91,1.52,1.34,1.34,2.36.71,2.89v7.89l-.51,3.26-.59,1.8-.69,1.35-1.4,1.66-1.49,1.17-1.49.66-1.69-.1-1.39-.8-1.31-1.34-.61-1.77v-4l-.55-1.85-1.15-1.33-1.2-1-2.26-.72-1.53-.14-2.63.13-1.45.31-1.45,1-1,1.75-.87,3.11-.6,2.75-.38,1.55,0,2.56.66,2.25.37,1.95.19,1.92,0,1.77-.12,1.71-.2,1.61-.3,1.52-.71,2.49-1,2.37-1.28,2.89-.33,1.92-.22,1.59-.51,2.1-.6,2.79-.17,1.76-.2,1.59-.72,2.62-1.85,3.24-1.16,2.29-.44,1.55v2.8l.53,1.84.69,1.34,1,1.71.71,1.86.37,1.79.72,2.15,1.46,2.45.63,1.48.33,1.48,0,2.77-.17,1.78-.14,2-.36,2.06-.61,2.64-.53,2.29-.55,1.95-.59,1.94-.55,2.09-.71,2.21-.6,1.7-.59,1.53-1.15,1.89L441.94,537l-1.27,1.12L438,540.11l-2,.74-1.78.5-1.94.31-1.66.39-2.67.93-3,.8-3,1.14-2.57,1.67L417.83,549l-.47,2.12-.63,2.21-.59,2-.66,3-.36,1.49-.19,2.21v2.22l-.17,2.69v3l-.13,3.25-.26,2.28-.39,2.15-.71,1.34-.59,1.54-.17,2.23.23,2.14.47,2.52.72,2.32.63,1.54.73,1.76.32,1.93-.24,2.49-.26,1.52-.34,1.43-1.34,2.31-1,1.22-1.12,1.8-1.16,2.38-1.38,2.56-1.31,2.39-1.34,2.5-1.4,1.58-1.71,2-1,1.75L401,623l-.94,1.9L399,627l-1.58,2.77-1.29,2.8-.61,1.61-.42,1.67-.38,1.57-.19,3.17v3.36l.42,3,0,2.65-.23,1.89-1,2.46-1.85,2.81L389.4,660l-1.91,2.29L386,663.93l-2.2,2.94-2.07,3.3-1.52,3-1.05,3-1.21,3.61-1.14,3.43-1.18,2.94-1.91,3L372,691.81l-2.53,3.43-1.71,2.56-2,3.3-1.05,2.22-.93,2.4-.93,3-.34,1.91-.38,3.45-.29,2.76-.41,3.48-.36,3.14-.69,4.12-.47,3.18-.28,2.57-.23,2.86-.16,2.16,0,2.51.12,2.26.41,2.19.63,2.93.68,2.7.48,3,.23,2.61.36,2.64.57,2.71.85,3,.83,2.36.88,1.46.8,1.19,1.31,1.32.89.52.9.14,1.65-.18.9-.15,1.51-.25,1.46-.26s.77-.21,1.51-.43,1.43-.46,1.43-.46l1.64-2,1.82-3.74s.6-1.54,1.24-3.09,1.34-3.1,1.34-3.1.3-.7.76-1.74,1.11-2.42,1.79-3.78,1.4-2.71,2-3.71.94-1.66.94-1.66.94-1.25,1.93-2.51,2-2.5,2-2.5,1.06-1,2.16-2,2.26-2,2.26-2,1.29-.92,3.33-2.32c1-.7,2.28-1.52,3.7-2.41.71-.44,1.47-.9,2.25-1.37s1.61-.93,2.45-1.4,1.71-.93,2.59-1.38,1.76-.89,2.64-1.31,1.75-.82,2.59-1.19,1.66-.71,2.44-1c1.55-.62,2.86-1.11,3.78-1.44l1.45-.51,1.66-.26c1-.15,2.36-.34,3.71-.5s2.64-.3,3.59-.38l1.57-.14s1,.17,1.86.36,1.7.41,1.7.41.14.5.24,1,.16,1.14.16,1.14l-1.07,1.5L437,728.67s-.68.94-1.4,1.94-1.46,2.09-1.46,2.09-.38.52-1,1.34-1.35,2-2.14,3.28-1.57,2.69-2.17,3.81-1,1.92-1,1.92-.39.84-1.05,2.4c-.33.78-.73,1.78-1.19,3s-1,2.63-1.5,4.26c-.27.82-.54,1.7-.81,2.64s-.54,1.94-.8,3-.52,2.17-.77,3.34-.48,2.39-.71,3.66-.43,2.59-.61,3.95-.35,2.76-.48,4.18-.25,2.87-.33,4.33-.14,2.92-.17,4.38,0,2.91,0,4.34.08,2.83.16,4.2.18,2.7.29,4,.25,2.52.41,3.71.32,2.32.49,3.39.36,2.1.55,3.07.38,1.87.58,2.73.39,1.65.59,2.38c.39,1.47.76,2.75,1.09,3.84s.62,2,.87,2.69c.49,1.41.77,2.18.77,2.18s.47,1.23,1.18,2.92c.36.85.77,1.76,1.21,2.68s.9,1.84,1.36,2.69.91,1.64,1.32,2.35.79,1.32,1.1,1.81c.63,1,1,1.6,1,1.6l.76,1.07c.45.63,1,1.43,1.56,2.14,1.08,1.44,2,2.67,2,2.67s.61.47,1.51,1.12l1.48,1.05,1.6,1.09c1.06.7,2.06,1.34,2.77,1.78l1.17.72,1.47.6c.87.35,2,.79,3.07,1.19l2.85,1,1.23.44,2.57.91,2.43.87" transform="translate(-142.79 -213.37)"/>
<path class="22edb9c8-831d-4e62-80f9-d8638466a2b9" d="M143.21,333.56l1.33.67,2,.91,1.66,1,1.4.91,1.46,1.09,2,1.88,1.46,2.32,1.09,2.7.67,2.73.47,1.41.3,1.94.17,2,.12,2,.12,1.79.2,1.84.86,2.35,1.28,2.14,1.59,1.43,1.25,1.1,2.19,1.84,1.84,1.67,1.84,1.31,2.94,1.72,2.1.65,1.8-.14,2-.47,1.4-.44,1.65-.57,2.53-1.53,1.41-1,1.3-1,2.81-2.1,2.37-1.89,1.17-1.36,1.28-1.36,1.35-1.53,1.43-1.66,1.12-1.31,1.3-1.78,1.67-2.85,1-1.36,1.83-2.49,2-1.76,2.07-.41,1.54.75,1.61,2.2.3,2.06-.23,2-.66,1.7-.31,2,.8,1.28,2.15.86,2.55.61,2.06,2.89.93,1.33.38,2.59.75,2.1,1.39,1,2.15,1,1.41.66,1.46.79,1.65.14,2,0,1.79.49,2,.61,1.7-.26,1.43-1.41.86-2.2.71-1.88,1.48-1.78,1.72-2.12,1.76-2,1.15-1.43,1.58-2.4,2.33-3,.92-1.35,1.61-1.8,1.65-1.39,1.22-1.22,1.65-1,2.73-1.52,1.28-.73,2.2-1.48.79-2.07.43-2.67,1.45-2.27,2.27-1.41,3-.17,2.73,1.12,2.27,1.65,3,1.31,1.8,1.15,2.63,1.39,1.52.19,2.18-.6,1.65-2.07.6-2,.39-2.8.36-1.72.26-2.21.2-2.32.3-2.1.1-1.58,0-1.49-.14-2.46-.1-2.08.13-2,.41-1.45.8-1.29L291,313.2l1.2-1,2-1.34,1.73-1.37,1.55-1.51.56-1.4.22-1.67.14-2,.42-2.19.6-2.21L300,297l1.22-1.57,1.63-1.14,1.53-.27,2.67-.07h2.46l1.84-.42,1.94-.61,1.47-.16,1.54.18,1.54.69,1.71.54,1.48,0,1.67-.2,1-1.3.66-1.63.59-1.46.54-1.92.74-1.53.42-1.48,0-1.59,1.48.14,1.26.78.73-1.46.6-1.75.82-1.76.94-1.26,1.6-1.16,1.33-1,1.41-1.18,1.6-1.15,1.18-1.47,1.2-1.81,1.36-1.57,1.49-.91,1.58-.77,1.78-.63,1.78-.81,1.58-1.23,1.31-1.31,1.73-2.13,1.42-1.17,2.08-1.7,1.59-1.78,1.47-2.1.69-1.83.26-2-.08-2.14-.6-1.4-.79-1.86-.92-1.24-1.41-1.35-.91-1.41-.5-2,.26-1.67.79-1.73,1.41-1.85,1.15-1.14,1.05-1,1.77-1.51,1.23-1.12,1.85-1.35,1.83-.68,3-.34,2.33-.11,2.35,0,2.65,0,3.11-.73,2.77-1.42,2.41-1.82,1.78-1.85,1.15-1,1-1.09,2.06-1.68,2-1.45,2-.69,2.55,0,1.58.31,1.69.55,1.45.72,1.1,1.31,1.58,2.68.79,1.92,1,2.15,1.63,2.21,1.08,1.89,1.3,2.62.92,2.43.36,2-.13,2.29-.47,1.61-1.18,2.1-1.57,2-1.31,1.34-.87,1.82-.42,1.79.1,1.78.32,2.28.54,2.41.86,2.22.72,1.43.76,1.29.79,1.37.85,1.25,1.78,1.47,1.54.81,2.25.33,2.46-.11,2.51,0,2.45.42,2,.72,2.53,1.31,1.3.93,1.25,1,1.35,2.62-.2,2.43-.45,1.41-.62,1.4-.75,1.71-.51,1.67-.53,1.36-.85,1.41L428.1,285l-1.25,2-1,2.18-.44,2.31-.14,1.57.31,2.62.59,2.15L427,300l.77,2.34.32,2.33.48,3.07.26,2.83-.27,2.43-.62,1.42-1,2.09-1.33,2.43-.6,2.77-.11,2.52-.12,1.48-.11,2.68.2,2.73.92,2.1,1.21,1.72,1.24,1.94,1.85,1.27,1.46,1.14,1.45,1.83,1.14,1.34.11,1.54-.14,1.48-.14,2.59-.13,1.58-.3,2.15v2.56l-.44,2.71-.45,1.49-.71,2.18-.35,1.43.11,2.37.93,2.06,1.54,1.77,2.62,1.55,1.48.8,2,1.08,1.94.79,1.61,1,1.66,1.33,1.72,1.28,1.84.93,1.88,1.2,1.4,1.3.35,1.59.39,1.95.53,2.1,1.22,1.48,1.53,1.72,1.33,1.46,1.6,2.08,1.67,1.43,1.17,1.37.42,2.27.36,2,.69,1.85.53,2.44.51,2.12.8,2.09,1.4,1.31,1.22,1.71.62,1.41.61,2.4.67,2.62.68,2.24,1.67,1.78,1.55.69,1.58.91,1.52,1.34,1.34,2.36.71,2.89v7.89l-.51,3.26-.59,1.8-.69,1.35-1.4,1.66-1.49,1.17-1.49.66-1.69-.1-1.39-.8-1.31-1.34-.61-1.77v-4l-.55-1.85-1.15-1.33-1.2-1-2.26-.72-1.53-.14-2.63.13-1.45.31-1.45,1-1,1.75-.87,3.11-.6,2.75-.38,1.55,0,2.56.66,2.25.37,1.95.19,1.92,0,1.77-.12,1.71-.2,1.61-.3,1.52-.71,2.49-1,2.37-1.28,2.89-.33,1.92-.22,1.59-.51,2.1-.6,2.79-.17,1.76-.2,1.59-.72,2.62-1.85,3.24-1.16,2.29-.44,1.55v2.8l.53,1.84.69,1.34,1,1.71.71,1.86.37,1.79.72,2.15,1.46,2.45.63,1.48.33,1.48,0,2.77-.17,1.78-.14,2-.36,2.06-.61,2.64-.53,2.29-.55,1.95-.59,1.94-.55,2.09-.71,2.21-.6,1.7-.59,1.53-1.15,1.89L441.94,537l-1.27,1.12L438,540.11l-2,.74-1.78.5-1.94.31-1.66.39-2.67.93-3,.8-3,1.14-2.57,1.67L417.83,549l-.47,2.12-.63,2.21-.59,2-.66,3-.36,1.49-.19,2.21v2.22l-.17,2.69v3l-.13,3.25-.26,2.28-.39,2.15-.71,1.34-.59,1.54-.17,2.23.23,2.14.47,2.52.72,2.32.63,1.54.73,1.76.32,1.93-.24,2.49-.26,1.52-.34,1.43-1.34,2.31-1,1.22-1.12,1.8-1.16,2.38-1.38,2.56-1.31,2.39-1.34,2.5-1.4,1.58-1.71,2-1,1.75L401,623l-.94,1.9L399,627l-1.58,2.77-1.29,2.8-.61,1.61-.42,1.67-.38,1.57-.19,3.17v3.36l.42,3,0,2.65-.23,1.89-1,2.46-1.85,2.81L389.4,660l-1.91,2.29L386,663.93l-2.2,2.94-2.07,3.3-1.52,3-1.05,3-1.21,3.61-1.14,3.43-1.18,2.94-1.91,3L372,691.81l-2.53,3.43-1.71,2.56-2,3.3-1.05,2.22-.93,2.4-.93,3-.34,1.91-.38,3.45-.29,2.76-.41,3.48-.36,3.14-.69,4.12-.47,3.18-.28,2.57-.23,2.86-.16,2.16,0,2.51.12,2.26.41,2.19.63,2.93.68,2.7.48,3,.23,2.61.36,2.64.57,2.71.85,3,.83,2.36.88,1.46.8,1.19,1.31,1.32.89.52.9.14,1.65-.18.9-.15,1.51-.25,1.46-.26s.77-.21,1.51-.43,1.43-.46,1.43-.46l1.64-2,1.82-3.74s.6-1.54,1.24-3.09,1.34-3.1,1.34-3.1.3-.7.76-1.74,1.11-2.42,1.79-3.78,1.4-2.71,2-3.71.94-1.66.94-1.66.94-1.25,1.93-2.51,2-2.5,2-2.5,1.06-1,2.16-2,2.26-2,2.26-2,1.29-.92,3.33-2.32c1-.7,2.28-1.52,3.7-2.41.71-.44,1.47-.9,2.25-1.37s1.61-.93,2.45-1.4,1.71-.93,2.59-1.38,1.76-.89,2.64-1.31,1.75-.82,2.59-1.19,1.66-.71,2.44-1c1.55-.62,2.86-1.11,3.78-1.44l1.45-.51,1.66-.26c1-.15,2.36-.34,3.71-.5s2.64-.3,3.59-.38l1.57-.14s1,.17,1.86.36,1.7.41,1.7.41.14.5.24,1,.16,1.14.16,1.14l-1.07,1.5L437,728.67s-.68.94-1.4,1.94-1.46,2.09-1.46,2.09-.38.52-1,1.34-1.35,2-2.14,3.28-1.57,2.69-2.17,3.81-1,1.92-1,1.92-.39.84-1.05,2.4c-.33.78-.73,1.78-1.19,3s-1,2.63-1.5,4.26c-.27.82-.54,1.7-.81,2.64s-.54,1.94-.8,3-.52,2.17-.77,3.34-.48,2.39-.71,3.66-.43,2.59-.61,3.95-.35,2.76-.48,4.18-.25,2.87-.33,4.33-.14,2.92-.17,4.38,0,2.91,0,4.34.08,2.83.16,4.2.18,2.7.29,4,.25,2.52.41,3.71.32,2.32.49,3.39.36,2.1.55,3.07.38,1.87.58,2.73.39,1.65.59,2.38c.39,1.47.76,2.75,1.09,3.84s.62,2,.87,2.69c.49,1.41.77,2.18.77,2.18s.47,1.23,1.18,2.92c.36.85.77,1.76,1.21,2.68s.9,1.84,1.36,2.69.91,1.64,1.32,2.35.79,1.32,1.1,1.81c.63,1,1,1.6,1,1.6l.76,1.07c.45.63,1,1.43,1.56,2.14,1.08,1.44,2,2.67,2,2.67s.61.47,1.51,1.12l1.48,1.05,1.6,1.09c1.06.7,2.06,1.34,2.77,1.78l1.17.72,1.47.6c.87.35,2,.79,3.07,1.19l2.85,1,1.23.44,2.57.91,2.43.87" transform="translate(-142.79 -217.37)"/>
</svg>
